<svg xmlns="http://www.w3.org/2000/svg" version="1.1" xmlns:xlink="http://www.w3.org/1999/xlink" width="512" height="512" x="0" y="0" viewBox="0 0 682.667 682.667" style="enable-background:new 0 0 512 512" xml:space="preserve"><g><defs><clipPath id="a" clipPathUnits="userSpaceOnUse"><path d="M0 512h512V0H0Z" fill="#000000" opacity="1" data-original="#000000"></path></clipPath></defs><g clip-path="url(#a)" transform="matrix(1.33333 0 0 -1.33333 0 682.667)"><path d="M0 0c0-141.385-114.615-256-256-256S-512-141.385-512 0s114.615 256 256 256S0 141.385 0 0" style="fill-opacity:1;fill-rule:nonzero;stroke:none" transform="translate(512 256)" fill="#dff6fd" data-original="#dff6fd"></path><path d="M0 0c76.166-44.354 127.368-126.878 127.368-221.37 0-141.385-114.616-256-256-256-35.264 0-68.86 7.133-99.43 20.029 37.798-22.011 81.739-34.63 128.632-34.63 141.385 0 256 114.616 256 256C156.57-129.85 91.997-38.812 0 0" style="fill-opacity:1;fill-rule:nonzero;stroke:none" transform="translate(355.43 491.97)" fill="#c8effe" data-original="#c8effe"></path><path d="M0 0c1.028 7.857 5.663 15.602 5.663 23.734 0 8.133-4.635 15.877-5.663 23.734-1.052 8.037 1.408 16.713-.651 24.391-2.093 7.805-8.581 14.082-11.641 21.445-3.094 7.442-2.978 16.464-6.984 23.378-4.033 6.96-11.926 11.343-16.807 17.689-4.896 6.366-7.107 15.117-12.778 20.787-5.67 5.67-14.42 7.882-20.786 12.779-6.346 4.879-10.73 12.772-17.69 16.805-6.914 4.007-15.935 3.891-23.378 6.986-7.363 3.06-13.639 9.547-21.445 11.64-7.678 2.059-16.355-.401-24.391.652-7.857 1.028-15.601 5.662-23.734 5.662-8.133 0-15.877-4.634-23.734-5.662-1.68-.221-3.39-.282-5.111-.268v-360.035c1.721.013 3.431-.047 5.111-.268 7.857-1.028 15.601-5.662 23.734-5.662 8.133 0 15.877 4.634 23.734 5.662 8.036 1.053 16.712-1.407 24.39.652 7.806 2.092 14.083 8.58 21.445 11.64 7.443 3.094 16.464 2.978 23.378 6.985 6.96 4.033 11.343 11.924 17.69 16.805 6.366 4.897 15.116 7.109 20.786 12.779 5.671 5.669 7.883 14.42 12.779 20.787 4.88 6.345 12.772 10.729 16.806 17.689 4.007 6.914 3.891 15.936 6.985 23.379 3.06 7.361 9.547 13.639 11.641 21.444C1.408-16.712-1.052-8.036 0 0" style="fill-opacity:1;fill-rule:nonzero;stroke:none" transform="translate(436.285 232.266)" fill="#ececec" data-original="#ececec"></path><path d="M0 0v.234c.034 10.912-9.636 19.281-20.396 17.475-86.917-14.582-153.36-90.341-153.36-181.338 0-91.598 67.322-167.761 155.084-181.625 12.26-1.936 22.506 9.15 19.761 21.255a120.537 120.537 0 0 0-.968 4.702c-7.253 39.082 14.301 41.066 14.301 80.815C14.422-198.734 0-198.734 0-158.986c0 39.746 14.422 39.746 14.422 79.493C14.422-39.747 0-39.747 0 0" style="fill-opacity:1;fill-rule:nonzero;stroke:none" transform="translate(245.869 419.629)" fill="#c86d36" data-original="#c86d36"></path><path d="M0 0h-30.592a6.182 6.182 0 0 0-6.181 6.181v30.591a6.181 6.181 0 0 0 6.181 6.182H0a6.18 6.18 0 0 0 6.181-6.182V6.181A6.181 6.181 0 0 0 0 0" style="fill-opacity:1;fill-rule:nonzero;stroke:none" transform="translate(196.326 327.77)" fill="#9e5528" data-original="#9e5528"></path><path d="M0 0h30.591a6.181 6.181 0 0 0 6.181-6.182v-30.591a6.18 6.18 0 0 0-6.181-6.181H0a6.18 6.18 0 0 0-6.181 6.181v30.591A6.181 6.181 0 0 0 0 0" style="fill-opacity:1;fill-rule:nonzero;stroke:none" transform="translate(175.163 251.415)" fill="#fdb541" data-original="#fdb541"></path><path d="M0 0c0-8.534-6.918-15.453-15.453-15.453-8.534 0-15.452 6.919-15.452 15.453 0 8.534 6.918 15.453 15.452 15.453C-6.918 15.453 0 8.534 0 0" style="fill-opacity:1;fill-rule:nonzero;stroke:none" transform="translate(145.628 280.268)" fill="#22b380" data-original="#22b380"></path><path d="M0 0c0 8.534 6.918 15.452 15.453 15.452 8.534 0 15.452-6.918 15.452-15.452 0-8.534-6.918-15.453-15.452-15.453C6.918-15.453 0-8.534 0 0" style="fill-opacity:1;fill-rule:nonzero;stroke:none" transform="translate(143.917 156.73)" fill="#f47c7c" data-original="#f47c7c"></path><path d="M0 0c1.028 7.857 5.663 15.602 5.663 23.734 0 8.133-4.635 15.877-5.663 23.734-1.052 8.037 1.408 16.713-.651 24.391-2.093 7.805-8.581 14.082-11.641 21.445-3.094 7.442-2.978 16.464-6.984 23.378-4.033 6.96-11.926 11.343-16.807 17.689-4.896 6.366-7.107 15.117-12.778 20.787-5.67 5.67-14.42 7.882-20.786 12.779-6.346 4.879-10.73 12.772-17.69 16.805-6.914 4.007-15.935 3.891-23.378 6.986-7.363 3.06-13.639 9.547-21.445 11.64-7.678 2.059-16.355-.401-24.391.652-7.857 1.028-15.601 5.662-23.734 5.662-5.479 0-10.782-2.102-16.061-3.788 14.829-4.739 21.727.246 32.064-2.526 7.805-2.093 14.082-8.58 21.444-11.64 7.443-3.095 16.465-2.979 23.379-6.986 6.96-4.033 11.343-11.926 17.689-16.805 6.366-4.897 15.117-7.109 20.787-12.779 5.67-5.67 7.882-14.421 12.778-20.787 4.881-6.346 12.773-10.729 16.807-17.689 4.006-6.914 3.89-15.936 6.984-23.378 3.06-7.363 9.548-13.64 11.641-21.445 2.058-7.678-.401-16.354.65-24.391 1.029-7.857 5.664-15.601 5.664-23.734 0-8.132-4.635-15.877-5.664-23.734-1.051-8.036 1.408-16.712-.65-24.391-2.094-7.805-8.581-14.083-11.642-21.444-3.093-7.443-2.977-16.465-6.984-23.379-4.034-6.96-11.926-11.344-16.807-17.689-4.896-6.367-7.108-15.118-12.778-20.787-5.67-5.67-14.421-7.882-20.787-12.779-6.346-4.881-10.729-12.772-17.689-16.805-6.914-4.007-15.936-3.891-23.378-6.985-7.362-3.06-13.64-9.548-21.445-11.64-10.287-2.759-17.284 2.196-32.063-2.526 5.279-1.686 10.582-3.788 16.061-3.788 8.133 0 15.877 4.634 23.734 5.662 8.036 1.053 16.712-1.407 24.39.652 7.806 2.092 14.083 8.58 21.445 11.64 7.443 3.094 16.464 2.978 23.378 6.985 6.96 4.033 11.343 11.924 17.69 16.805 6.366 4.897 15.116 7.109 20.786 12.779 5.671 5.669 7.883 14.42 12.779 20.787 4.88 6.345 12.772 10.729 16.806 17.689 4.007 6.914 3.891 15.936 6.985 23.379 3.06 7.361 9.547 13.639 11.641 21.444C1.408-16.712-1.052-8.036 0 0" style="fill-opacity:1;fill-rule:nonzero;stroke:none" transform="translate(436.285 232.266)" fill="#cecece" data-original="#cecece"></path><path d="M0 0c0 39.746 14.422 39.746 14.422 79.493C14.422 119.239 0 119.239 0 158.986v.235c.034 10.911-9.636 19.28-20.396 17.475a184.42 184.42 0 0 1-8.198-1.57c2.739-27.288 13.815-31.597 13.815-66.431 0-39.747-14.423-39.747-14.423-79.493 0-39.748 14.423-39.748 14.423-79.496 0-39.749-21.555-41.732-14.302-80.814.301-1.624.625-3.191.968-4.703 2.746-12.105-7.501-23.191-19.762-21.254-32.081 5.067-61.424 18.468-85.753 37.897 28.039-35.12 68.649-59.784 114.956-67.1 12.26-1.936 22.506 9.15 19.761 21.255a120.537 120.537 0 0 0-.968 4.702c-7.253 39.082 14.301 41.066 14.301 80.815C14.422-39.748 0-39.748 0 0" style="fill-opacity:1;fill-rule:nonzero;stroke:none" transform="translate(245.869 260.643)" fill="#ac5e2e" data-original="#ac5e2e"></path><path d="M0 0c0-9.111-5.996-16.497-13.392-16.497-7.397 0-13.393 7.386-13.393 16.497s5.996 16.498 13.393 16.498C-5.996 16.498 0 9.111 0 0" style="fill-opacity:1;fill-rule:nonzero;stroke:none" transform="translate(353.518 184.952)" fill="#cecece" data-original="#cecece"></path><path d="M0 0c0-9.111-5.996-16.497-13.392-16.497-7.397 0-13.393 7.386-13.393 16.497 0 9.112 5.996 16.498 13.393 16.498C-5.996 16.498 0 9.112 0 0" style="fill-opacity:1;fill-rule:nonzero;stroke:none" transform="translate(381.777 239.532)" fill="#cecece" data-original="#cecece"></path><path d="M0 0c0-9.111-5.996-16.498-13.392-16.498-7.397 0-13.393 7.387-13.393 16.498s5.996 16.498 13.393 16.498C-5.996 16.498 0 9.111 0 0" style="fill-opacity:1;fill-rule:nonzero;stroke:none" transform="translate(322.456 238.698)" fill="#cecece" data-original="#cecece"></path><path d="M0 0c0-9.112-5.996-16.498-13.393-16.498-7.396 0-13.392 7.386-13.392 16.498 0 9.111 5.996 16.497 13.392 16.497C-5.996 16.497 0 9.111 0 0" style="fill-opacity:1;fill-rule:nonzero;stroke:none" transform="translate(310.775 134.392)" fill="#cecece" data-original="#cecece"></path></g></g></svg>