<svg xmlns="http://www.w3.org/2000/svg" version="1.1" xmlns:xlink="http://www.w3.org/1999/xlink" width="512" height="512" x="0" y="0" viewBox="0 0 496.438 496.438" style="enable-background:new 0 0 512 512" xml:space="preserve"><g><path fill="#c76d33" d="m445.261 13.7-9.429-9.752c-5.01-5.182-13.287-5.275-18.413-.208L255.072 164.214v24.823h23.868L444.85 32.11c5.237-4.953 5.421-13.229.411-18.41z" opacity="1" data-original="#c76d33"></path><path fill="#df8a57" d="M211.797 233.82c-4.679-7.919-2.113-18.128 5.753-22.894L446.597 72.16c6.165-3.735 14.192-1.717 17.859 4.488l6.901 11.679c3.667 6.205 1.561 14.21-4.684 17.809L234.625 239.824c-7.969 4.592-18.15 1.914-22.828-6.004z" opacity="1" data-original="#df8a57"></path><circle cx="192.41" cy="168.568" r="31.258" fill="#36d49b" opacity="1" data-original="#36d49b"></circle><path fill="#ff758f" d="m128.4 213.045-33.596 19.396c-5.577 3.22-12.709 1.309-15.928-4.268L59.48 194.578c-3.22-5.577-1.309-12.709 4.268-15.928l33.596-19.396c5.577-3.22 12.709-1.309 15.928 4.268l19.396 33.596c3.22 5.576 1.309 12.707-4.268 15.927z" opacity="1" data-original="#ff758f"></path><circle cx="400.541" cy="215.216" r="31.931" fill="#00c780" opacity="1" data-original="#00c780"></circle><path fill="#ffd4a3" d="M98.47 275.064h61.837l-18.865-35.927-31.033-13.97-7.071-7.071c-8.538-8.538-22.38-8.538-30.918 0s-8.538 22.38 0 30.918z" opacity="1" data-original="#ffd4a3"></path><path fill="#ffbe73" d="M160.307 275.064h61.837l-23.129-41.684-43.545-24.99-14.142-14.142c-8.538-8.538-22.38-8.538-30.918 0s-8.538 22.38 0 30.918z" opacity="1" data-original="#ffbe73"></path><path fill="#ffd4a3" d="M222.143 275.064h61.837l-23.138-46.691-53.241-29.688-21.213-21.213c-8.538-8.538-22.38-8.538-30.918 0s-8.538 22.38 0 30.918z" opacity="1" data-original="#ffd4a3"></path><path fill="#ffbe73" d="M283.98 275.064h61.837L238.519 167.767c-8.538-8.538-22.38-8.538-30.918 0s-8.538 22.38 0 30.918z" opacity="1" data-original="#ffbe73"></path><path fill="#fff8e6" d="m291.228 275.064 13.419-44.847-13.419-42.985v-10c0-12.074-9.788-21.862-21.863-21.862-12.074 0-21.863 9.788-21.863 21.862v97.833h43.726z" opacity="1" data-original="#fff8e6"></path><path fill="#5b778f" d="M269.03 496.438h101.845c10.212 0 18.49-8.278 18.49-18.49v-43.542H200.119l-4.988 47.395z" opacity="1" data-original="#5b778f"></path><path fill="#ffeab7" d="m334.953 275.064 13.248-34.675-13.248-33.157v-20c0-12.074-9.788-21.862-21.863-21.862-12.074 0-21.863 9.788-21.863 21.862v87.833h43.726z" opacity="1" data-original="#ffeab7"></path><path fill="#fff8e6" d="m378.678 275.064 9.824-21.159-9.824-16.674v-30c0-12.074-9.788-21.862-21.863-21.862-12.074 0-21.862 9.788-21.862 21.862v67.833z" opacity="1" data-original="#fff8e6"></path><path fill="#ffeab7" d="M422.403 275.064v-37.833c0-12.074-9.788-21.862-21.863-21.862-12.074 0-21.863 9.788-21.863 21.862v37.833z" opacity="1" data-original="#ffeab7"></path><path fill="#485c70" d="M200.119 434.406H99.055v43.542c0 10.212 8.278 18.49 18.49 18.49H269.03a258.883 258.883 0 0 1-68.911-62.032z" opacity="1" data-original="#485c70"></path><path fill="#485c70" d="M147.081 259.509h298.837c10.617 0 19.224 8.607 19.224 19.224v56.349c0 60.337-48.912 109.249-109.249 109.249H208.185l-45.152-9.925-42.708-64.053-2.889-94.463z" opacity="1" data-original="#485c70"></path><path fill="#334151" d="M146.473 277.075c0-5.905.217-11.759.608-17.566H42.502c-10.617 0-19.224 8.607-19.224 19.224v56.349c0 60.337 48.912 109.249 109.249 109.249h75.658c-38.47-45.001-61.712-103.411-61.712-167.256z" opacity="1" data-original="#334151"></path><path fill="#f9d171" d="M112.825 288.505a7.5 7.5 0 0 0-7.5 7.5v19.515H93.31v-19.515a7.5 7.5 0 0 0-7.5-7.5H58.796a7.5 7.5 0 0 0-7.5 7.5v27.015a7.5 7.5 0 0 0 15 0v-19.515H78.31v19.515a7.5 7.5 0 0 0 7.5 7.5h27.015a7.5 7.5 0 0 0 7.5-7.5v-27.015a7.5 7.5 0 0 0-7.5-7.5z" opacity="1" data-original="#f9d171"></path><g fill="#fad989"><path d="M225.925 323.02v-27.015a7.5 7.5 0 0 0-15 0v19.515H198.91v-19.515a7.5 7.5 0 0 0-7.5-7.5h-27.015a7.5 7.5 0 0 0-7.5 7.5v27.015a7.5 7.5 0 0 0 15 0v-19.515h12.015v19.515a7.5 7.5 0 0 0 7.5 7.5h27.015a7.5 7.5 0 0 0 7.5-7.5zM324.025 288.505a7.5 7.5 0 0 0-7.5 7.5v19.515H304.51v-19.515a7.5 7.5 0 0 0-7.5-7.5h-27.015a7.5 7.5 0 0 0-7.5 7.5v27.015c0 4.142 3.357 7.5 7.5 7.5s7.5-3.358 7.5-7.5v-19.515h12.015v19.515a7.5 7.5 0 0 0 7.5 7.5h27.015a7.5 7.5 0 0 0 7.5-7.5v-27.015a7.5 7.5 0 0 0-7.5-7.5zM429.624 288.505a7.5 7.5 0 0 0-7.5 7.5v19.515H410.11v-19.515a7.5 7.5 0 0 0-7.5-7.5h-27.015a7.5 7.5 0 0 0-7.5 7.5v27.015c0 4.142 3.357 7.5 7.5 7.5s7.5-3.358 7.5-7.5v-19.515h12.015v19.515a7.5 7.5 0 0 0 7.5 7.5h27.015a7.5 7.5 0 0 0 7.5-7.5v-27.015a7.501 7.501 0 0 0-7.501-7.5z" fill="#fad989" opacity="1" data-original="#fad989"></path></g><ellipse cx="170.953" cy="389.36" fill="#ffa1ac" rx="27.03" ry="21.525" opacity="1" data-original="#ffa1ac"></ellipse><ellipse cx="317.466" cy="389.36" fill="#ffa1ac" rx="27.03" ry="21.525" opacity="1" data-original="#ffa1ac"></ellipse><path fill="#ffffff" d="M182.61 344.297c-11.726 0-21.265 9.539-21.265 21.265a7.5 7.5 0 0 0 15 0c0-3.455 2.811-6.265 6.265-6.265s6.265 2.81 6.265 6.265a7.5 7.5 0 0 0 15 0c.001-11.726-9.539-21.265-21.265-21.265zM305.655 344.297c-11.726 0-21.265 9.539-21.265 21.265 0 4.142 3.357 7.5 7.5 7.5s7.5-3.358 7.5-7.5a6.272 6.272 0 0 1 6.265-6.265 6.272 6.272 0 0 1 6.266 6.265c0 4.142 3.357 7.5 7.5 7.5s7.5-3.358 7.5-7.5c0-11.726-9.541-21.265-21.266-21.265zM244.836 352.05a7.5 7.5 0 0 0 0 15c1.963 0 3.56 1.597 3.56 3.56s-1.597 3.56-3.56 3.56a7.5 7.5 0 0 0 0 15c1.963 0 3.56 1.597 3.56 3.56s-1.597 3.56-3.56 3.56a7.5 7.5 0 0 0 0 15c10.233 0 18.56-8.326 18.56-18.56 0-4.146-1.384-7.967-3.69-11.06 2.307-3.093 3.69-6.913 3.69-11.06-.001-10.234-8.327-18.56-18.56-18.56z" opacity="1" data-original="#ffffff"></path></g></svg>