<svg xmlns="http://www.w3.org/2000/svg" version="1.1" xmlns:xlink="http://www.w3.org/1999/xlink" width="512" height="512" x="0" y="0" viewBox="0 0 512 512" style="enable-background:new 0 0 512 512" xml:space="preserve" class=""><g><path d="M246.49 111.899a4.128 4.128 0 1 0-8.258 0v34.007h-9.657v-34.007a4.128 4.128 0 1 0-8.258 0v34.007h-9.657v-34.007a4.128 4.128 0 1 0-8.258 0v34.007h-9.657v-34.007a4.128 4.128 0 1 0-8.258 0c.007 6.724-.04 38.283.064 38.861 1.775 9.933 8.108 18.463 17.57 22.92l-4.11 74.236c10.727 6.657 22.667 11.532 35.413 14.189l-4.902-88.263c9.157-4.176 16.041-12.625 17.905-23.082.102-.561.055-31.545.063-38.861zM327.502 140.318c0-23.774-14.102-43.111-31.435-43.111-17.312 0-31.397 19.338-31.397 43.111 0 17.144 7.336 31.945 17.906 38.896l-4.563 82.994a109.644 109.644 0 0 0 35.417-13.972l-3.808-69.056c10.558-6.964 17.88-21.744 17.88-38.862zM276.747 424.798a495.129 495.129 0 0 0-7.927 19.819c-2.023 5.409-7.06 8.918-12.84 8.918-5.822 0-10.9-3.508-12.882-9.001-1.734-4.79-4.17-11.437-7.556-19.778-50.167 2.973-95.047 17.095-95.047 42.404 0 21.635 46.41 44.839 115.486 44.839 69.118 0 115.569-23.204 115.569-44.839-.003-25.145-44.719-39.307-94.803-42.362z" fill="#007dab" opacity="1" data-original="#000000" class=""></path><path d="M249.609.133c-79.245 3.209-144.053 67.765-147.542 146.965-1.744 39.552 11.49 77.766 37.264 107.608 72.427 83.863 100.373 156.412 111.517 186.999 1.738 4.771 8.465 4.772 10.248.019 11.193-29.844 41.803-103.535 113.174-188.901 23.096-27.62 35.816-62.692 35.816-98.749 0-87.092-72.264-157.554-160.477-153.941zm6.334 272.553c-65.366 0-118.545-53.224-118.545-118.648 0-65.365 53.179-118.541 118.545-118.541 65.421 0 118.645 53.177 118.645 118.541.001 65.423-53.224 118.648-118.645 118.648z" fill="#007dab" opacity="1" data-original="#000000" class=""></path></g></svg>