<svg xmlns="http://www.w3.org/2000/svg" version="1.1" xmlns:xlink="http://www.w3.org/1999/xlink" width="512" height="512" x="0" y="0" viewBox="0 0 64 64" style="enable-background:new 0 0 512 512" xml:space="preserve"><g><path fill="#d90429" d="M41 48.273h-2.75l7.275-17.46-14.115-.075-12.931.075 7.275 17.46h-2.747a1 1 0 0 0-.812 1.561l9.015 13.235a.98.98 0 0 0 1.625 0l8.976-13.235A1 1 0 0 0 41 48.273z" opacity="1" data-original="#d90429"></path><path d="M32.022 64a1.483 1.483 0 0 1-1.225-.649l-9.015-13.236a1.5 1.5 0 0 1-.086-1.55 1.481 1.481 0 0 1 1.311-.793H25l-7.271-17.455 13.676-.079 14.866.079L39 47.772h2a1.481 1.481 0 0 1 1.31.791 1.5 1.5 0 0 1-.083 1.55l-8.978 13.235a1.483 1.483 0 0 1-1.225.652zm-9.015-15.228a.474.474 0 0 0-.427.261.5.5 0 0 0 .028.52l9.015 13.235a.478.478 0 0 0 .4.212.476.476 0 0 0 .4-.213L41.4 49.551a.5.5 0 0 0 .029-.519.476.476 0 0 0-.427-.26H37.5l7.277-17.463-13.37-.071-12.18.071L26.5 48.772z" fill="#000000" opacity="1" data-original="#000000"></path><path fill="#ef233c" d="M43.834.5H20.166a6.933 6.933 0 0 0-6.9 6.969v17.936A6.95 6.95 0 0 0 19.1 32.3a6.468 6.468 0 0 0 1.071.089h23.663a6.468 6.468 0 0 0 1.071-.089 6.95 6.95 0 0 0 5.825-6.89V7.469A6.933 6.933 0 0 0 43.834.5zm2.26 23.054a5.325 5.325 0 0 1-5.289 5.355H23.2a5.325 5.325 0 0 1-5.289-5.355V9.33A5.318 5.318 0 0 1 23.2 3.975h17.61a5.318 5.318 0 0 1 5.284 5.355z" opacity="1" data-original="#ef233c"></path><path d="M43.834 32.884H20.166a6.984 6.984 0 0 1-1.154-.095 7.41 7.41 0 0 1-6.242-7.384V7.469A7.442 7.442 0 0 1 20.166 0h23.668a7.442 7.442 0 0 1 7.4 7.469v17.936a7.41 7.41 0 0 1-6.247 7.384 6.879 6.879 0 0 1-1.153.095zM20.166 1a6.44 6.44 0 0 0-6.4 6.469v17.936a6.416 6.416 0 0 0 5.4 6.4 6.067 6.067 0 0 0 .993.082h23.675a5.961 5.961 0 0 0 .988-.082 6.416 6.416 0 0 0 5.408-6.4V7.469A6.44 6.44 0 0 0 43.834 1zm20.639 28.409H23.2a5.829 5.829 0 0 1-5.789-5.855V9.33A5.829 5.829 0 0 1 23.2 3.475h17.61a5.829 5.829 0 0 1 5.784 5.855v14.224a5.829 5.829 0 0 1-5.789 5.855zM23.2 4.475a4.828 4.828 0 0 0-4.794 4.855v14.224a4.828 4.828 0 0 0 4.794 4.855h17.61a4.828 4.828 0 0 0 4.789-4.855V9.33a4.828 4.828 0 0 0-4.789-4.855z" fill="#000000" opacity="1" data-original="#000000"></path></g></svg>