<svg xmlns="http://www.w3.org/2000/svg" version="1.1" xmlns:xlink="http://www.w3.org/1999/xlink" width="512" height="512" x="0" y="0" viewBox="0 0 74 74" style="enable-background:new 0 0 512 512" xml:space="preserve"><g><path fill="#1e1e1e" d="M65.51 51.79c-6.73 9.71-27.15 12.39-42.42 8.91C9.93 57.71.6 50.16 7.15 38.6c6.28-11.07 26.3-14.6 41.88-11.74 14.98 2.75 25.86 11.41 16.48 24.93z" opacity="1" data-original="#1e1e1e"></path><path fill="#333333" d="M65.51 49.81c-6.73 9.31-27.15 11.87-42.42 8.55C9.93 55.48.6 48.24 7.15 37.16c6.28-10.61 26.3-13.99 41.88-11.25 14.98 2.64 25.86 10.93 16.48 23.9z" opacity="1" data-original="#333333"></path><path fill="#474747" d="M49.03 25.92c-3.42-.61-7.05-.91-10.7-.91-6.5 0-13.07.97-18.63 2.97S9.6 33.02 7.15 37.17C.6 48.24 9.93 55.49 23.09 58.35c4.22.92 8.85 1.39 13.46 1.39 12.06 0 24.09-3.2 28.96-9.93 9.38-12.97-1.5-21.26-16.48-23.89zm15.67 23.3c-4.25 5.88-15.03 9.52-28.15 9.52-4.56 0-9.14-.47-13.25-1.36-8.62-1.88-14.66-5.49-16.59-9.91-1.26-2.9-.82-6.2 1.3-9.79 4.2-7.09 16.1-11.67 30.32-11.67 3.62 0 7.16.3 10.53.89 9.74 1.71 16.49 5.55 18.5 10.52 1.4 3.45.51 7.42-2.66 11.8z" opacity="1" data-original="#474747"></path><path fill="#1e1e1e" d="M36.74 53.5c-2.88 0-5.75-.29-8.36-.86-5.71-1.24-9.59-3.63-10.93-6.71-.92-2.12-.63-4.47.86-7 3.93-6.64 16.38-8.84 26.13-7.12 6.35 1.12 10.78 3.71 12.16 7.11 1.01 2.49.42 5.28-1.76 8.29-3.11 4.31-10.64 6.29-18.1 6.29zm1.03-21.26c-7.81 0-15.71 2.31-18.6 7.2-1.32 2.23-1.59 4.28-.8 6.09 1.19 2.74 4.92 4.97 10.23 6.13 9.09 1.98 21.49.43 25.44-5.03 1.96-2.71 2.51-5.17 1.64-7.32-1.25-3.08-5.4-5.45-11.4-6.5-2.09-.38-4.3-.57-6.51-.57z" opacity="1" data-original="#1e1e1e"></path><g fill="#fff"><path d="M61.41 30.02c-2.61 2.31-4.54 5.38-5.33 8.77-.33 1.47-.65 3.23-2.02 3.86-.87.39-1.9.17-2.82.41-1.57.4-2.49 2.01-3.07 3.52-.59 1.51-1.07 3.17-2.34 4.19-3.1 2.48-8.33-.69-11.46 1.75-1.33 1.04-1.84 2.82-2.95 4.11-1.72 1.98-4.61 2.47-7.23 2.32-2.62-.16-5.22-.82-7.84-.62-.18.01-.35.03-.53.06C9.04 55.5 4.54 50.95 5.04 44.9c-.2-2.32.43-4.91 2.11-7.74 6.28-10.61 26.3-13.99 41.88-11.25 4.7.82 8.99 2.2 12.38 4.11z" opacity="1" fill="#ffffff10" data-original="#ffffff10"></path><path d="M43.9 25.25a35.477 35.477 0 0 0-8.82 5.81c-1.09.97-2.17 2.04-3.55 2.52-1.53.53-3.25.27-4.77.84-2.46.92-3.63 3.67-4.36 6.19-.74 2.52-1.45 5.31-3.58 6.84-3.04 2.17-7.3.72-10.95 1.51-.73.16-1.43.42-2.09.77-.62-1.49-.88-3.09-.74-4.83-.2-2.32.43-4.91 2.11-7.74 5.61-9.48 22.17-13.18 36.75-11.91z" opacity="1" fill="#ffffff10" data-original="#ffffff10"></path></g><path fill="#f4bb56" d="M24.13 35.11c.21.89 1.17 1.39 2.07 1.56s1.85.14 2.69.51c.82.36 1.47 1.07 2.32 1.34 1.29.42 2.67-.25 4.04-.27 1.01-.01 1.99.33 2.96.59 3.3.88 6.77.79 10.18.69 1.75-.05 3.52-.1 5.22-.55 1.33-.35 2.63-.98 3.62-1.92.45-.43.43-1.14 0-1.58-6.32-6.55-11.31-14.08-15.05-22.4-.21-.47-.47-.99-.95-1.17-.72-.27-1.49.42-1.7 1.17-.2.75-.04 1.54-.09 2.31-.09 1.44-.87 2.74-1.76 3.88s-1.91 2.18-2.61 3.44c-.61 1.09-.96 2.31-1.54 3.42-.76 1.45-1.9 2.66-3.02 3.85-1.08 1.14-2.17 2.3-3.52 3.11-1 .59-2.2 1.06-2.86 2.02z" opacity="1" data-original="#f4bb56"></path><g fill="#e8ad4d"><path d="M40.73 11.99c-.1 2.46.98 4.72 2.21 6.77.63 1.03 1.27 2.06 1.85 3.14s1.07 2.21 1.47 3.36c.77 2.32 1.29 4.7 1.85 7.05.56 2.36 1.08 4.73 1.58 7.1a279.4 279.4 0 0 1-1.95-7.01c-.64-2.34-1.16-4.71-1.95-6.98-.38-1.14-.84-2.25-1.39-3.31-.55-1.07-1.2-2.09-1.78-3.16s-1.14-2.17-1.5-3.34-.53-2.41-.39-3.62zM40.53 35.37c.31.14.53.49.47.83-.05.3-.31.54-.61.62-.44.12-1.46-.06-1.39-.67.06-.64 1-1.02 1.53-.78zM28.72 34.05c.31.14.53.49.47.83-.05.3-.31.54-.61.62-.44.12-1.46-.06-1.39-.67.06-.64 1-1.02 1.53-.78zM40.49 23.8c.16.07.26.25.23.41-.03.15-.16.27-.3.31-.22.06-.73-.03-.7-.34.04-.31.51-.5.77-.38z" fill="#e8ad4d" opacity="1" data-original="#e8ad4d"></path><path d="M43.94 21.45c.16.07.26.25.23.41-.03.15-.16.27-.3.31-.22.06-.73-.03-.7-.34.04-.31.51-.5.77-.38zM41.99 27.61c.16.07.26.25.23.41-.03.15-.16.27-.3.31-.22.06-.73-.03-.7-.34s.5-.5.77-.38zM46.46 27.43c.16.07.26.25.23.41-.03.15-.16.27-.3.31-.22.06-.73-.03-.7-.34.04-.31.51-.5.77-.38zM48.3 26.75c.16.07.26.25.23.41-.03.15-.16.27-.3.31-.22.06-.73-.03-.7-.34s.5-.5.77-.38zM46.26 21.71c.16.07.26.25.23.41-.03.15-.16.27-.3.31-.22.06-.73-.03-.7-.34.04-.31.51-.5.77-.38zM43.44 17.27c.16.07.26.25.23.41-.03.15-.16.27-.3.31-.22.06-.73-.03-.7-.34.04-.31.5-.5.77-.38zM53.07 32.29c.16.07.26.25.23.41-.03.15-.16.27-.3.31-.22.06-.73-.03-.7-.34.04-.31.51-.5.77-.38zM51.09 29.46c.16.07.26.25.23.41-.03.15-.16.27-.3.31-.22.06-.73-.03-.7-.34.04-.31.51-.5.77-.38zM44.44 31.51c.16.07.26.25.23.41-.03.15-.16.27-.3.31-.22.06-.73-.03-.7-.34.04-.31.51-.5.77-.38zM48.3 34.95c.16.07.26.25.23.41-.03.15-.16.27-.3.31-.22.06-.73-.03-.7-.34s.5-.5.77-.38zM34.25 34.56c.16.07.26.25.23.41-.03.15-.16.27-.3.31-.22.06-.73-.03-.7-.34.04-.31.5-.5.77-.38zM34.25 28c.16.07.26.25.23.41-.03.15-.16.27-.3.31-.22.06-.73-.03-.7-.34.04-.31.5-.5.77-.38zM37.16 22.1c.16.07.26.25.23.41-.03.15-.16.27-.3.31-.22.06-.73-.03-.7-.34s.5-.5.77-.38zM32.89 31.51c.16.07.26.25.23.41-.03.15-.16.27-.3.31-.22.06-.73-.03-.7-.34.04-.31.51-.5.77-.38zM38.38 30.65c.15.07.25.23.22.39-.03.14-.15.25-.29.29-.21.06-.69-.03-.66-.32s.48-.47.73-.36zM38.18 25.61c.31.14.53.49.47.83-.05.3-.31.54-.61.62-.44.12-1.46-.06-1.39-.67.07-.64 1-1.02 1.53-.78zM49.57 31.94c.31.14.53.49.47.83-.05.3-.31.54-.61.62-.44.12-1.46-.06-1.39-.67.06-.64 1-1.02 1.53-.78zM40.25 18.33c.15.07.25.23.22.39-.03.14-.15.25-.29.29-.21.06-.69-.03-.66-.32.04-.29.48-.47.73-.36z" fill="#e8ad4d" opacity="1" data-original="#e8ad4d"></path></g><path d="M57.22 37.06c-.99.95-2.28 1.57-3.62 1.93-1.69.45-3.46.5-5.22.55-3.41.1-6.88.19-10.17-.69-.98-.26-1.96-.6-2.97-.59-1.36.02-2.74.69-4.03.27-.85-.28-1.5-.98-2.32-1.34-.84-.36-1.79-.33-2.69-.51-.9-.17-1.85-.67-2.07-1.56.66-.97 1.86-1.44 2.86-2.04.75-.45 1.41-1 2.04-1.6.57.36 1.08.87 1.57 1.33.91.86 2.15 1.69 3.33 1.27.89-.32 1.57-1.3 2.5-1.19.71.09 1.16.78 1.68 1.28.91.88 2.28 1.25 3.51.95.95-.24 1.8-.84 2.77-.93.94-.09 1.85.31 2.76.58 2.78.82 5.88.35 8.37-1.13.56.62 1.13 1.24 1.71 1.84.43.44.44 1.16-.01 1.58z" opacity="1" fill="#00000005" data-original="#00000005"></path><path d="M57.22 37.06c-.99.95-2.28 1.57-3.62 1.93-1.69.45-3.46.5-5.22.55-3.41.1-6.88.19-10.17-.69-.98-.26-1.96-.6-2.97-.59-1.36.02-2.74.69-4.03.27-.85-.28-1.5-.98-2.32-1.34-.84-.36-1.79-.33-2.69-.51-.9-.17-1.85-.67-2.07-1.56.13-.19.28-.36.44-.51.71.11 1.43.17 2.07.47.8.38 1.41 1.09 2.23 1.38 1.25.45 2.62-.16 3.95-.14.99.01 1.93.38 2.88.66 3.19.96 6.58.97 9.92.97 1.71 0 3.45 0 5.12-.39.02 0 .03-.01.05-.01 2.43-.57 3.31-3.56 1.71-5.46-5.08-6.04-9.1-12.77-12.14-20.09.27-.15.57-.2.87-.09.48.18.73.7.95 1.17 3.74 8.32 8.72 15.85 15.05 22.4.43.44.44 1.16-.01 1.58z" opacity="1" fill="#00000005" data-original="#00000005"></path><path fill="#fff" d="M49.75 26.42c-1.68 1.79-3.54 3.43-5 5.41-.84 1.13-1.61 2.44-2.9 3.01-1.53.68-3.3.14-4.97.11-2.5-.03-4.92 1.26-6.43 3.21-.52-.32-1-.72-1.56-.97-.84-.36-1.79-.33-2.69-.51-.9-.17-1.85-.67-2.07-1.56.66-.97 1.86-1.44 2.86-2.04 1.35-.81 2.44-1.97 3.52-3.11 1.12-1.19 2.26-2.4 3.02-3.85.58-1.1.93-2.32 1.54-3.41.7-1.26 1.72-2.31 2.61-3.44.89-1.14 1.67-2.44 1.76-3.88.05-.78-.11-1.57.09-2.31.2-.75.97-1.44 1.7-1.17.48.18.73.7.95 1.17 2.12 4.71 4.63 9.17 7.57 13.34z" opacity=".1"></path><path fill="#fff" d="M43.44 15.74c-.12 1.82-.57 3.62-1.77 4.96-.92 1.03-2.23 1.69-3.02 2.82-1.17 1.66-.98 3.93-1.86 5.76-.9 1.89-2.82 3.07-4.75 3.87s-3.99 1.34-5.77 2.44c-.36.22-.71.48-1.04.77-.53-.27-.96-.68-1.1-1.24.66-.97 1.86-1.44 2.86-2.04 1.35-.81 2.44-1.97 3.52-3.11 1.12-1.19 2.26-2.4 3.02-3.85.58-1.1.93-2.32 1.54-3.41.7-1.26 1.72-2.31 2.61-3.44.89-1.14 1.67-2.44 1.76-3.88.05-.78-.11-1.57.09-2.31.2-.75.97-1.44 1.7-1.17.48.18.73.7.95 1.17.4.9.82 1.78 1.26 2.66z" opacity=".1"></path><path fill="#f4bb56" d="M34.13 41.62c.21.89 1.17 1.39 2.07 1.56s1.85.14 2.69.51c.82.36 1.47 1.07 2.32 1.34 1.29.42 2.67-.25 4.04-.27 1.01-.01 1.99.33 2.96.59 3.3.88 6.77.79 10.18.69 1.75-.05 3.52-.1 5.22-.55 1.33-.35 2.63-.98 3.62-1.92.45-.43.43-1.14 0-1.58-6.32-6.55-11.31-14.08-15.05-22.4-.21-.47-.47-.99-.95-1.17-.72-.27-1.49.42-1.7 1.17-.2.75-.04 1.54-.09 2.31-.09 1.44-.87 2.74-1.76 3.88s-1.91 2.18-2.61 3.44c-.61 1.09-.96 2.31-1.54 3.42-.76 1.45-1.9 2.66-3.02 3.85-1.08 1.14-2.17 2.3-3.52 3.11-1 .59-2.2 1.06-2.86 2.02z"></path><g fill="#e8ad4d"><path d="M50.73 18.5c-.1 2.46.98 4.72 2.21 6.77.63 1.03 1.27 2.06 1.85 3.14s1.07 2.21 1.47 3.36c.77 2.32 1.29 4.7 1.85 7.05.56 2.36 1.08 4.73 1.58 7.1a279.4 279.4 0 0 1-1.95-7.01c-.64-2.34-1.16-4.71-1.95-6.98-.38-1.14-.84-2.25-1.39-3.31-.55-1.07-1.2-2.09-1.78-3.16s-1.14-2.17-1.5-3.34c-.35-1.17-.53-2.41-.39-3.62zM50.53 41.88c.31.14.53.49.47.83-.05.3-.31.54-.61.62-.44.12-1.46-.06-1.39-.67.07-.64 1-1.02 1.53-.78zM38.72 40.56c.31.14.53.49.47.83-.05.3-.31.54-.61.62-.44.12-1.46-.06-1.39-.67.06-.64 1-1.02 1.53-.78zM50.49 30.31c.16.07.26.25.23.41-.03.15-.16.27-.3.31-.22.06-.73-.03-.7-.34.04-.31.51-.5.77-.38z"></path><path d="M53.94 27.96c.16.07.26.25.23.41-.03.15-.16.27-.3.31-.22.06-.73-.03-.7-.34.04-.31.51-.5.77-.38zM51.99 34.12c.16.07.26.25.23.41-.03.15-.16.27-.3.31-.22.06-.73-.03-.7-.34.04-.31.51-.5.77-.38zM56.46 33.94c.16.07.26.25.23.41-.03.15-.16.27-.3.31-.22.06-.73-.03-.7-.34.04-.31.51-.5.77-.38zM58.3 33.26c.16.07.26.25.23.41-.03.15-.16.27-.3.31-.22.06-.73-.03-.7-.34s.5-.5.77-.38zM56.27 28.22c.16.07.26.25.23.41-.03.15-.16.27-.3.31-.22.06-.73-.03-.7-.34s.5-.5.77-.38zM53.44 23.78c.16.07.26.25.23.41-.03.15-.16.27-.3.31-.22.06-.73-.03-.7-.34.04-.31.51-.5.77-.38zM63.07 38.8c.16.07.26.25.23.41-.03.15-.16.27-.3.31-.22.06-.73-.03-.7-.34.04-.31.51-.5.77-.38zM61.09 35.97c.16.07.26.25.23.41-.03.15-.16.27-.3.31-.22.06-.73-.03-.7-.34.04-.31.51-.5.77-.38zM54.45 38.02c.16.07.26.25.23.41-.03.15-.16.27-.3.31-.22.06-.73-.03-.7-.34s.5-.5.77-.38zM58.3 41.46c.16.07.26.25.23.41-.03.15-.16.27-.3.31-.22.06-.73-.03-.7-.34s.5-.5.77-.38zM44.25 41.07c.16.07.26.25.23.41-.03.15-.16.27-.3.31-.22.06-.73-.03-.7-.34.04-.31.51-.5.77-.38zM44.25 34.51c.16.07.26.25.23.41-.03.15-.16.27-.3.31-.22.06-.73-.03-.7-.34.04-.31.51-.5.77-.38zM47.16 28.61c.16.07.26.25.23.41-.03.15-.16.27-.3.31-.22.06-.73-.03-.7-.34s.5-.5.77-.38zM42.89 38.02c.16.07.26.25.23.41-.03.15-.16.27-.3.31-.22.06-.73-.03-.7-.34.04-.31.51-.5.77-.38zM48.38 37.16c.15.07.25.23.22.39-.03.14-.15.25-.29.29-.21.06-.69-.03-.66-.32.04-.29.48-.47.73-.36zM48.18 32.12c.31.14.53.49.47.83-.05.3-.31.54-.61.62-.44.12-1.46-.06-1.39-.67.07-.64 1.01-1.02 1.53-.78zM59.57 38.45c.31.14.53.49.47.83-.05.3-.31.54-.61.62-.44.12-1.46-.06-1.39-.67.06-.64 1-1.02 1.53-.78zM50.25 24.84c.15.07.25.23.22.39-.03.14-.15.25-.29.29-.21.06-.69-.03-.66-.32.04-.29.48-.47.73-.36z"></path></g><path d="M67.22 43.57c-.99.95-2.28 1.57-3.62 1.93-1.69.45-3.46.5-5.22.55-3.41.1-6.88.19-10.17-.69-.98-.26-1.96-.6-2.97-.59-1.36.02-2.74.69-4.03.27-.85-.28-1.5-.98-2.32-1.34-.84-.36-1.79-.33-2.69-.51-.9-.17-1.85-.67-2.07-1.56.66-.97 1.86-1.44 2.86-2.04.75-.45 1.41-1 2.04-1.6.57.36 1.08.87 1.57 1.33.91.86 2.15 1.69 3.33 1.27.89-.32 1.57-1.3 2.5-1.19.71.09 1.16.78 1.68 1.28.91.88 2.28 1.25 3.51.95.95-.24 1.8-.84 2.77-.93.94-.09 1.85.31 2.76.58 2.78.82 5.88.35 8.37-1.13.56.62 1.13 1.24 1.71 1.84.43.44.44 1.16-.01 1.58z" opacity=".05"></path><path d="M67.22 43.57c-.99.95-2.28 1.57-3.62 1.93-1.69.45-3.46.5-5.22.55-3.41.1-6.88.19-10.17-.69-.98-.26-1.96-.6-2.97-.59-1.36.02-2.74.69-4.03.27-.85-.28-1.5-.98-2.32-1.34-.84-.36-1.79-.33-2.69-.51-.9-.17-1.85-.67-2.07-1.56.13-.19.28-.36.44-.51.71.11 1.43.17 2.07.47.8.38 1.41 1.09 2.23 1.38 1.25.45 2.62-.16 3.95-.14.99.01 1.93.38 2.88.66 3.19.96 6.58.97 9.92.97 1.71 0 3.45 0 5.12-.39.02 0 .03-.01.05-.01 2.42-.57 3.31-3.56 1.71-5.46-5.07-6.03-9.09-12.76-12.14-20.09.27-.15.57-.2.87-.09.48.18.73.7.95 1.17 3.74 8.32 8.72 15.85 15.05 22.4.43.44.44 1.16-.01 1.58z" opacity=".05"></path><path fill="#fff" d="M59.75 32.93c-1.68 1.79-3.54 3.43-5 5.41-.84 1.13-1.61 2.44-2.9 3.01-1.53.68-3.3.14-4.97.11-2.5-.03-4.92 1.26-6.43 3.21-.52-.32-1-.72-1.56-.97-.84-.36-1.79-.33-2.69-.51-.9-.17-1.85-.67-2.07-1.56.66-.97 1.86-1.44 2.86-2.04 1.35-.81 2.44-1.97 3.52-3.11 1.12-1.19 2.26-2.4 3.02-3.85.58-1.1.93-2.32 1.54-3.41.7-1.26 1.72-2.31 2.61-3.44.89-1.14 1.67-2.44 1.76-3.88.05-.78-.11-1.57.09-2.31.2-.75.97-1.44 1.7-1.17.48.18.73.7.95 1.17 2.12 4.71 4.63 9.17 7.57 13.34z" opacity=".1"></path><path fill="#fff" d="M53.44 22.25c-.12 1.82-.57 3.62-1.77 4.96-.92 1.03-2.23 1.69-3.02 2.82-1.17 1.66-.98 3.93-1.86 5.76-.9 1.89-2.82 3.07-4.75 3.87S38.05 41 36.27 42.1c-.36.22-.71.48-1.04.77-.53-.27-.96-.68-1.1-1.24.66-.97 1.86-1.44 2.86-2.04 1.35-.81 2.44-1.97 3.52-3.11 1.12-1.19 2.26-2.4 3.02-3.85.58-1.1.93-2.32 1.54-3.41.7-1.26 1.72-2.31 2.61-3.44.89-1.14 1.67-2.44 1.76-3.88.05-.78-.11-1.57.09-2.31.2-.75.97-1.44 1.7-1.17.48.18.73.7.95 1.17.4.9.82 1.78 1.26 2.66z" opacity=".1"></path><path fill="#f2f2f0" d="M27.54 33.62c-.11 3.21-1.66 6.37-3.42 9.02-.61.92-1.64 1.46-2.74 1.46h-8.63c-1.06 0-2.06-.51-2.68-1.37-1.92-2.67-3.46-5.74-3.46-8.86z"></path><path d="M27.54 33.62c-.12 3.21-1.66 6.36-3.42 9.02-.6.91-1.63 1.45-2.73 1.45h-8.64c-1.05 0-2.05-.5-2.67-1.37-.12-.16-.23-.33-.35-.5.6.43 1.42.68 2.53.68h3.45c5 0 9.43-3.41 10.52-8.3.07-.33.13-.64.16-.97z" opacity=".05"></path><path fill="#e2e2e2" d="M18.22 29.62c-4.43 0-9.07 1.19-10.89 2.89-2.18 2.04.91 4.42 5.21 5.12 1.38.22 2.89.34 4.4.34 3.94 0 7.87-.77 9.46-2.4 3.07-3.13-.49-5.13-5.39-5.77-.9-.13-1.84-.18-2.79-.18z"></path><path fill="#f2f2f0" d="M18.18 30.16c.94 0 1.85.06 2.7.17 4.02.54 5.95 1.86 6.07 2.94.05.45-.31 1.13-.96 1.81-1.37 1.44-4.84 2.33-9.06 2.33-1.46 0-2.93-.12-4.25-.33-3.6-.6-5.41-2.2-5.5-3.1-.03-.27.17-.63.54-.98 1.71-1.65 6.11-2.84 10.46-2.84"></path><path fill="#fe2c02" d="M26.68 34.21c-.16.28-.39.57-.67.87-1.37 1.43-4.84 2.33-9.06 2.33-1.46 0-2.93-.11-4.25-.33-2.71-.45-4.4-1.47-5.12-2.34.05-.05.1-.11.15-.16 1.7-1.64 6.1-2.83 10.45-2.83.94 0 1.85.06 2.7.18 3.24.43 5.12 1.37 5.8 2.28z"></path><path d="M25.63 34.28c-.3.65-.85 1.2-1.49 1.57s-1.33.63-2.03.81c-1.41.38-2.86.5-4.31.5-1.45-.02-2.89-.16-4.3-.52-1.38-.38-2.83-1.01-3.67-2.21.52.49 1.14.83 1.8 1.07.65.25 1.32.43 2.01.55 1.37.23 2.78.34 4.18.34 1.4.02 2.8-.07 4.17-.32 1.34-.26 2.76-.62 3.64-1.79z" opacity=".05"></path><path d="M26.68 34.21c-.02.04-.05.08-.07.11-1-.52-2.47-.98-4.47-1.25-.85-.11-1.76-.18-2.7-.18-4.36 0-8.75 1.19-10.45 2.83l-.08.08c-.6-.34-1.04-.71-1.32-1.06.05-.05.1-.11.15-.16 1.7-1.64 6.1-2.83 10.45-2.83.94 0 1.85.06 2.7.18 3.23.43 5.11 1.37 5.79 2.28z" opacity=".05"></path><path fill="#e52000" d="M12.28 36.3c.07-.01.15-.01.22-.01.08.01.13.03.17.06.12.09.06.26-.37.21-.17-.02-.23-.07-.27-.12-.08-.07 0-.11.25-.14zM15.4 35.35c.07-.01.15-.01.22-.01.08.01.13.03.17.06.12.09.06.26-.37.21-.17-.02-.23-.07-.27-.12-.07-.07.01-.11.25-.14zM17.42 36.6c.07-.01.15-.01.22-.01.08.01.13.03.17.06.12.09.06.26-.37.21-.17-.02-.23-.07-.27-.12-.08-.08 0-.12.25-.14zM10.89 34.57c.07-.01.15-.01.22-.01.08.01.13.03.17.06.12.09.06.26-.37.21-.17-.02-.23-.07-.27-.12-.07-.08.01-.12.25-.14zM17.22 32.91c.07-.01.15-.01.22-.01.08.01.13.03.17.06.12.09.06.26-.37.21-.17-.02-.23-.07-.27-.12-.07-.08.01-.12.25-.14zM14.53 34.11c.07-.01.15-.01.22-.01.08.01.13.03.17.06.12.09.06.26-.37.21-.17-.02-.23-.07-.27-.12-.08-.08 0-.11.25-.14zM18.29 34.71c.07-.01.15-.01.22-.01.08.01.13.03.17.06.12.09.06.26-.37.21-.17-.02-.23-.07-.27-.12-.07-.08.01-.12.25-.14zM12.83 32.94c.07-.01.15-.01.22-.01.08.01.13.03.17.06.12.09.06.26-.37.21-.17-.02-.23-.07-.27-.12-.08-.08 0-.12.25-.14zM23.23 35.74c.07-.01.15-.01.22-.01.08.01.13.03.17.06.12.09.06.26-.37.21-.17-.02-.23-.07-.27-.12-.07-.08.01-.12.25-.14zM22.52 33.08c.07-.01.15-.01.22-.01.08.01.13.03.17.06.12.09.06.26-.37.21-.17-.02-.23-.07-.27-.12-.08-.08 0-.12.25-.14zM23.23 34.49c.07-.01.15-.01.22-.01.08.01.13.03.17.06.12.09.06.26-.37.21-.17-.02-.23-.07-.27-.12-.07-.07.01-.11.25-.14zM21.02 35.23c.07-.01.15-.01.22-.01.08.01.13.03.17.06.12.09.06.26-.37.21-.17-.02-.23-.07-.27-.12-.08-.07 0-.11.25-.14zM20.08 33.71c.07-.01.15-.01.22-.01.08.01.13.03.17.06.12.09.06.26-.37.21-.17-.02-.23-.07-.27-.12-.08-.08 0-.12.25-.14z"></path><path fill="#f2f2f0" d="M33.57 43.08c-.11 3.21-1.66 6.37-3.42 9.02-.61.92-1.64 1.46-2.74 1.46h-8.63c-1.06 0-2.06-.51-2.68-1.37-1.92-2.67-3.46-5.74-3.46-8.86z"></path><path d="M33.57 43.08c-.12 3.21-1.66 6.36-3.42 9.02-.6.91-1.63 1.45-2.73 1.45h-8.64c-1.05 0-2.05-.5-2.67-1.37-.12-.16-.23-.33-.35-.5.6.43 1.42.68 2.53.68h3.45c5 0 9.43-3.41 10.52-8.3.07-.33.13-.64.16-.97z" opacity=".05"></path><path fill="#e2e2e2" d="M24.25 39.08c-4.43 0-9.07 1.19-10.89 2.89-2.18 2.04.91 4.42 5.21 5.12 1.38.22 2.89.34 4.4.34 3.94 0 7.87-.77 9.46-2.4 3.07-3.13-.49-5.13-5.39-5.77-.89-.13-1.84-.18-2.79-.18z"></path><path fill="#f2f2f0" d="M24.22 39.62c.94 0 1.85.06 2.7.17 4.02.54 5.95 1.86 6.07 2.94.05.45-.31 1.13-.96 1.81-1.37 1.44-4.84 2.33-9.06 2.33-1.46 0-2.93-.12-4.25-.33-3.6-.6-5.41-2.2-5.5-3.1-.03-.27.17-.63.54-.98 1.71-1.65 6.1-2.84 10.46-2.84"></path><path fill="#5dc917" d="M32.71 43.67c-.16.28-.39.57-.67.87-1.37 1.43-4.84 2.33-9.06 2.33-1.46 0-2.93-.11-4.25-.33-2.71-.45-4.4-1.47-5.12-2.34.05-.05.1-.11.15-.16 1.7-1.64 6.1-2.83 10.45-2.83.94 0 1.85.06 2.7.18 3.24.43 5.12 1.37 5.8 2.28z"></path><path d="M31.67 43.74c-.3.65-.85 1.2-1.49 1.57s-1.33.63-2.03.81c-1.41.38-2.86.5-4.31.5-1.45-.02-2.89-.16-4.3-.52-1.38-.38-2.83-1.01-3.67-2.21.52.49 1.14.83 1.8 1.07.65.25 1.32.43 2.01.55 1.37.23 2.78.34 4.18.34 1.4.02 2.8-.07 4.17-.32 1.33-.26 2.75-.62 3.64-1.79z" opacity=".05"></path><path d="M32.71 43.67c-.02.04-.05.08-.07.11-1-.52-2.47-.98-4.47-1.25-.85-.11-1.76-.18-2.7-.18-4.36 0-8.75 1.19-10.45 2.83l-.08.08c-.6-.34-1.04-.71-1.32-1.06.05-.05.1-.11.15-.16 1.7-1.64 6.1-2.83 10.45-2.83.94 0 1.85.06 2.7.18 3.23.43 5.11 1.37 5.79 2.28z" opacity=".05"></path><path fill="#4db20d" d="M18.31 45.76c.07-.01.15-.01.22-.01.08.01.13.03.17.06.12.09.06.26-.37.21-.17-.02-.23-.07-.27-.12-.07-.08.01-.11.25-.14zM21.44 44.81c.07-.01.15-.01.22-.01.08.01.13.03.17.06.12.09.06.26-.37.21-.17-.02-.23-.07-.27-.12-.08-.08 0-.12.25-.14zM23.45 46.06c.07-.01.15-.01.22-.01.08.01.13.03.17.06.12.09.06.26-.37.21-.17-.02-.23-.07-.27-.12-.07-.08.01-.12.25-.14zM16.93 44.03c.07-.01.15-.01.22-.01.08.01.13.03.17.06.12.09.06.26-.37.21-.17-.02-.23-.07-.27-.12-.07-.08.01-.12.25-.14zM23.25 42.37c.07-.01.15-.01.22-.01.08.01.13.03.17.06.12.09.06.26-.37.21-.17-.02-.23-.07-.27-.12-.07-.08.01-.12.25-.14zM20.56 43.57c.07-.01.15-.01.22-.01.08.01.13.03.17.06.12.09.06.26-.37.21-.17-.02-.23-.07-.27-.12-.07-.08.01-.12.25-.14zM24.33 44.17c.07-.01.15-.01.22-.01.08.01.13.03.17.06.12.09.06.26-.37.21-.17-.02-.23-.07-.27-.12-.07-.08.01-.12.25-.14zM18.86 42.4c.07-.01.15-.01.22-.01.08.01.13.03.17.06.12.09.06.26-.37.21-.17-.02-.23-.07-.27-.12-.07-.08.01-.12.25-.14zM29.27 45.2c.07-.01.15-.01.22-.01.08.01.13.03.17.06.12.09.06.26-.37.21-.17-.02-.23-.07-.27-.12-.08-.08 0-.12.25-.14zM28.55 42.54c.07-.01.15-.01.22-.01.08.01.13.03.17.06.12.09.06.26-.37.21-.17-.02-.23-.07-.27-.12-.07-.08.01-.12.25-.14zM29.27 43.95c.07-.01.15-.01.22-.01.08.01.13.03.17.06.12.09.06.26-.37.21-.17-.02-.23-.07-.27-.12-.08-.07 0-.11.25-.14zM27.05 44.69c.07-.01.15-.01.22-.01.08.01.13.03.17.06.12.09.06.26-.37.21-.17-.02-.23-.07-.27-.12-.07-.07.01-.11.25-.14zM26.11 43.17c.07-.01.15-.01.22-.01.08.01.13.03.17.06.12.09.06.26-.37.21-.17-.02-.23-.07-.27-.12-.07-.08.01-.12.25-.14z"></path><path fill="#ffdc78" d="M49.75 51.44c0 .22-.02.45-.08.69-.13.59-.42 1.22-.9 1.89-.17.24-.37.46-.6.67-2.33 2.09-7.46 2.62-11.39 1.76-1.77-.39-3.3-1.06-4.22-2a2.84 2.84 0 0 1-.24-.26c-.29-.36-.49-.74-.59-1.16-.01-.01-.01-.01-.01-.02-.05-.21-.07-.41-.07-.63 0-.59.18-1.25.6-1.96 1.77-3.02 7.44-3.99 11.85-3.2 3.15.55 5.65 2 5.65 4.22z"></path><g fill="#f2b827"><path d="m40.09 51.72-6.85 1.72a.57.57 0 0 1-.68-.39c-.22-.72-.1-1.56.45-2.5.63-1.07 1.8-1.85 3.22-2.38.21-.08.45-.02.6.14zM34.22 53.85l6.16-1.53v3.51c0 .32-.27.58-.59.57-.93-.04-1.83-.16-2.68-.35-1.18-.25-2.24-.65-3.05-1.18-.41-.26-.32-.9.16-1.02zM44.55 48.73l-3.8 2.75-2.78-2.91c-.31-.32-.14-.86.29-.94 1.67-.32 3.76-.44 6.07.09.48.11.61.72.22 1.01zM41.71 52.44l5.43 1.15c.44.09.62.67.27.96-1.31 1.11-3.49 1.71-5.79 1.84a.562.562 0 0 1-.59-.57v-2.83c.01-.36.33-.63.68-.55zM48.04 53.13l-6.55-1.38 4.48-3.23c.16-.12.39-.14.57-.06 1.94.91 3.01 2.39 2.12 4.37-.1.23-.37.35-.62.3z"></path></g><g fill="#ffdc78"><path d="M42.12 50.07c0 .3-1.02.75-1.02.75s-.84-.41-.87-.77c-.03-.34.46-.55.96-.57.47 0 .94.17.93.59zM37.7 50.74c.58.1 1.1.83 1.1.83s-1.07.34-1.75.25c-.66-.09-.9-.45-.77-.73s.61-.49 1.42-.35zM38.15 53.19c.33-.25 1.66-.3 1.66-.3s.26.61-.09.92c-.33.29-.97.31-1.4.17-.42-.15-.63-.44-.17-.79zM41.72 53.81c-.33-.24-.03-.93-.03-.93s1.12.05 1.54.32c.4.26.25.59-.13.76-.35.16-.92.18-1.38-.15zM44.66 51.75c-.5.1-1.57-.26-1.57-.26s.41-.55.98-.68c.55-.13 1.06.05 1.25.28.17.23.04.52-.66.66z"></path></g><path fill="#f2b827" d="M49.76 51.44v1.32c0 .77-.3 1.63-.98 2.58-1.91 2.65-7.68 3.38-12 2.43-2.89-.63-5.12-2.01-5.12-4.07v-1.32c0 .22.02.43.07.63 0 .01 0 .01.01.02.1.42.3.81.59 1.16.07.1.15.18.24.26.91.93 2.44 1.61 4.22 2 3.93.86 9.06.33 11.39-1.76.24-.21.44-.44.61-.67.48-.67.78-1.31.9-1.89.05-.24.07-.47.07-.69z"></path><path fill="#ffdc78" d="M42.52 51.81c0 .04 0 .09-.02.14-.03.12-.08.24-.18.38a.49.49 0 0 1-.12.13c-.47.42-1.49.52-2.28.35-.35-.08-.66-.21-.84-.4l-.05-.05a.567.567 0 0 1-.12-.23c-.01-.04-.01-.08-.01-.13 0-.12.04-.25.12-.39.35-.6 1.49-.8 2.37-.64.63.11 1.13.4 1.13.84z"></path><path fill="#fff" d="M49.6 50.54c-.22.25-.47.49-.73.73-.95.83-2.13 1.46-3.4 1.51-.53.01-1.07-.07-1.57.1-1.12.38-1.48 1.78-2.37 2.56-.64.55-1.51.75-2.34.79-.85.04-1.68-.08-2.52-.09-.83-.01-1.72.08-2.43.52l-.22.14c-1.43-.74-2.34-1.8-2.34-3.11v-1.33c0-.59.18-1.25.6-1.95 1.77-3.02 7.44-3.98 11.84-3.2 2.68.49 4.91 1.62 5.48 3.33z" opacity=".1"></path><path fill="#fff" d="M43.35 47.1c-.47.13-.94.25-1.42.35-.74.16-1.52.3-2.07.82-.72.7-.79 1.9-1.54 2.58-.49.46-1.18.6-1.85.62-.66.03-1.34-.05-1.99.05-1.09.17-2.07.81-2.82 1.63v-.78c0-.59.18-1.25.6-1.95 1.67-2.85 6.81-3.87 11.09-3.32z" opacity=".1"></path><path fill="#ffdc78" d="M61.4 48.63c0 .22-.02.45-.08.69-.13.59-.42 1.22-.9 1.89-.17.24-.37.46-.6.67-2.33 2.09-7.46 2.62-11.39 1.76-1.77-.39-3.3-1.06-4.22-2a2.84 2.84 0 0 1-.24-.26c-.29-.36-.49-.74-.59-1.16-.01-.01-.01-.01-.01-.02-.05-.21-.07-.41-.07-.63 0-.59.18-1.25.6-1.96 1.77-3.02 7.44-3.99 11.85-3.2 3.14.56 5.65 2 5.65 4.22z"></path><g fill="#f2b827"><path d="m51.73 48.91-6.85 1.72a.57.57 0 0 1-.68-.39c-.22-.72-.1-1.56.45-2.5.63-1.07 1.8-1.85 3.22-2.38.21-.08.45-.02.6.14zM45.87 51.04l6.16-1.53v3.51c0 .32-.27.58-.59.57-.93-.04-1.83-.16-2.68-.35-1.18-.25-2.24-.65-3.05-1.18-.42-.26-.33-.9.16-1.02zM56.19 45.92l-3.8 2.75-2.78-2.91c-.31-.32-.14-.86.29-.94 1.67-.32 3.76-.44 6.07.09.48.11.62.72.22 1.01zM53.36 49.63l5.43 1.15c.44.09.62.67.27.96-1.31 1.11-3.49 1.71-5.79 1.84a.562.562 0 0 1-.59-.57v-2.83c0-.36.33-.62.68-.55zM59.69 50.32l-6.55-1.38 4.48-3.23c.16-.12.39-.14.57-.06 1.94.91 3.01 2.39 2.12 4.37-.1.23-.37.35-.62.3z"></path></g><g fill="#ffdc78"><path d="M53.77 47.27c0 .3-1.02.75-1.02.75s-.84-.41-.87-.77c-.03-.34.46-.55.96-.57.46-.01.93.16.93.59zM49.35 47.93c.58.1 1.1.83 1.1.83s-1.07.34-1.75.25c-.66-.09-.9-.45-.77-.73s.61-.49 1.42-.35zM49.79 50.38c.33-.25 1.66-.3 1.66-.3s.26.61-.09.92c-.33.29-.97.31-1.4.17-.41-.15-.62-.44-.17-.79zM53.36 51c-.33-.24-.03-.93-.03-.93s1.12.05 1.54.32c.4.26.25.59-.13.76-.35.16-.91.19-1.38-.15zM56.31 48.94c-.5.1-1.57-.26-1.57-.26s.41-.55.98-.68c.55-.13 1.06.05 1.25.28.17.23.04.52-.66.66z"></path></g><path fill="#f2b827" d="M61.41 48.63v1.32c0 .77-.3 1.63-.98 2.58-1.91 2.65-7.68 3.38-12 2.43-2.89-.63-5.12-2.01-5.12-4.07v-1.32c0 .22.02.43.07.63 0 .01 0 .01.01.02.1.42.3.81.59 1.16.07.1.15.18.24.26.91.93 2.44 1.61 4.22 2 3.93.86 9.06.33 11.39-1.76.24-.21.44-.44.61-.67.48-.67.78-1.31.9-1.89.04-.24.07-.47.07-.69z"></path><path fill="#ffdc78" d="M54.16 49c0 .04 0 .09-.02.14-.03.12-.08.24-.18.38a.49.49 0 0 1-.12.13c-.47.42-1.49.52-2.28.35-.35-.08-.66-.21-.84-.4l-.05-.05a.567.567 0 0 1-.12-.23c-.01-.04-.01-.08-.01-.13 0-.12.04-.25.12-.39.35-.6 1.49-.8 2.37-.64.63.11 1.13.4 1.13.84z"></path><path fill="#fff" d="M61.25 47.73c-.22.25-.47.49-.73.73-.95.83-2.13 1.46-3.4 1.51-.53.01-1.07-.07-1.57.1-1.12.38-1.48 1.78-2.37 2.56-.64.55-1.51.75-2.34.79-.85.04-1.68-.08-2.52-.09-.83-.01-1.72.08-2.43.52l-.22.14c-1.43-.74-2.34-1.8-2.34-3.11v-1.33c0-.59.18-1.25.6-1.95 1.77-3.02 7.44-3.98 11.84-3.2 2.68.49 4.9 1.62 5.48 3.33z" opacity=".1"></path><path fill="#fff" d="M55 44.29c-.47.13-.94.25-1.42.35-.74.16-1.52.3-2.07.82-.72.7-.79 1.9-1.54 2.58-.49.46-1.18.6-1.85.62-.66.03-1.34-.05-1.99.05-1.09.17-2.07.81-2.82 1.63v-.78c0-.59.18-1.25.6-1.95 1.67-2.85 6.81-3.86 11.09-3.32z" opacity=".1"></path></g></svg>