<svg xmlns="http://www.w3.org/2000/svg" version="1.1" xmlns:xlink="http://www.w3.org/1999/xlink" width="512" height="512" x="0" y="0" viewBox="0 0 682.667 682.667" style="enable-background:new 0 0 512 512" xml:space="preserve"><g><defs><clipPath id="a" clipPathUnits="userSpaceOnUse"><path d="M0 512h512V0H0Z" fill="#000000" opacity="1" data-original="#000000"></path></clipPath></defs><g clip-path="url(#a)" transform="matrix(1.33333 0 0 -1.33333 0 682.667)"><path d="m0 0 193.896 62.911 45.397 11.824C271.33-48.019 197.679-173.478 74.788-205.486c-122.891-32.009-248.485 41.555-280.523 164.309-32.037 122.753 41.614 248.213 164.505 280.221 39.647 10.326 79.575 9.664 116.552-.092l-11.884-45.101Z" style="fill-opacity:1;fill-rule:nonzero;stroke:none" transform="translate(220.728 220.474)" fill="#f5a26a" data-original="#f5a26a"></path><path d="M0 0c3.828-14.737 5.865-30.197 5.865-46.132 0-101.058-81.924-182.981-182.982-182.981-101.057 0-182.981 81.923-182.981 182.981 0 101.058 81.924 182.982 182.981 182.982 15.438 0 32.339-2.311 46.659-5.91l-46.659-177.072z" style="fill-opacity:1;fill-rule:nonzero;stroke:none" transform="translate(414.623 283.385)" fill="#ffdb63" data-original="#ffdb63"></path><path d="m0 0-49.606-188.258 42.947 11.186L40 0C25.68 3.599 8.778 5.91-6.659 5.91c-6.864 0-13.635-.391-20.303-1.127C-17.631 3.764-8.374 2.104 0 0" style="fill-opacity:1;fill-rule:nonzero;stroke:none" transform="translate(244.166 414.325)" fill="#ffd033" data-original="#ffd033"></path><path d="m0 0-37.752-9.833a183.777 183.777 0 0 0 3.617-36.299c0-94.298-71.334-171.925-162.982-181.889a185.034 185.034 0 0 1 20-1.092c101.058 0 182.982 81.924 182.982 182.981C5.865-30.197 3.828-14.737 0 0" style="fill-opacity:1;fill-rule:nonzero;stroke:none" transform="translate(414.623 283.385)" fill="#ffd033" data-original="#ffd033"></path><path d="M0 0c-20.49 77.147-82.301 139.946-159.073 161.771L-222.247-59.13Z" style="fill-opacity:1;fill-rule:nonzero;stroke:none" transform="translate(504.5 342.73)" fill="#f5a26a" data-original="#f5a26a"></path><path d="M0 0a185.047 185.047 0 0 1-15.702 5.395l-1.333.218-50.094-175.166 176.672 47.005C94.951-68.637 55.95-22.065 0 0" style="fill-opacity:1;fill-rule:nonzero;stroke:none" transform="translate(349.382 453.152)" fill="#ffdb63" data-original="#ffdb63"></path><path d="m0 0 40.361 10.738C25.768 64.649-13.232 111.221-69.183 133.286a185.147 185.147 0 0 1-15.701 5.395l-1.334.218-7.081-24.764C-46.271 90.264-13.396 48.124 0 0" style="fill-opacity:1;fill-rule:nonzero;stroke:none" transform="translate(418.565 319.866)" fill="#ffd033" data-original="#ffd033"></path><path d="M0 0c3.646-13.967-4.735-28.242-18.717-31.883-13.983-3.642-28.273 4.728-31.918 18.695C-54.28.779-45.9 15.053-31.918 18.695-17.935 22.337-3.645 13.967 0 0" style="fill-opacity:1;fill-rule:nonzero;stroke:none" transform="translate(152.939 308.398)" fill="#f54c5a" data-original="#f54c5a"></path><path d="M0 0c3.646-13.967-4.735-28.242-18.717-31.884-13.983-3.641-28.273 4.728-31.918 18.696C-54.28.778-45.9 15.053-31.918 18.695-17.935 22.337-3.645 13.967 0 0" style="fill-opacity:1;fill-rule:nonzero;stroke:none" transform="translate(169.438 156.299)" fill="#f54c5a" data-original="#f54c5a"></path><path d="M0 0c3.645-13.967-4.735-28.242-18.717-31.883-13.983-3.642-28.273 4.728-31.918 18.695" style="fill-opacity:1;fill-rule:nonzero;stroke:none" transform="translate(384.59 275.562)" fill="#f54c5a" data-original="#f54c5a"></path><path d="M0 0c3.645-13.967-4.735-28.242-18.718-31.884-13.982-3.641-28.272 4.729-31.917 18.696-3.646 13.966 4.734 28.241 18.717 31.883C-17.936 22.337-3.646 13.967 0 0" style="fill-opacity:1;fill-rule:nonzero;stroke:none" transform="translate(337.189 137.159)" fill="#f54c5a" data-original="#f54c5a"></path><path d="M0 0c-12.152-.647-23.492 7.289-26.681 19.51-3.646 13.967 4.735 28.242 18.717 31.884a26.104 26.104 0 0 0 19.836-2.745" style="fill-opacity:1;fill-rule:nonzero;stroke:none" transform="translate(255.21 305.366)" fill="#f54c5a" data-original="#f54c5a"></path><path d="M0 0c13.88-3.963 21.91-18.437 17.937-32.33C13.962-46.221-.511-54.27-14.391-50.307" style="fill-opacity:1;fill-rule:nonzero;stroke:none" transform="translate(316.49 400.791)" fill="#f54c5a" data-original="#f54c5a"></path><path d="M0 0c-5.996 10.59-3.946 24.278 5.573 32.581 10.878 9.488 27.391 8.349 36.884-2.545a26.107 26.107 0 0 0 6.384-18.979" style="fill-opacity:1;fill-rule:nonzero;stroke:none" transform="translate(378.68 311.964)" fill="#f54c5a" data-original="#f54c5a"></path><path d="M0 0c1.931 0 1.934 3 0 3-1.93 0-1.934-3 0-3" style="fill-opacity:1;fill-rule:nonzero;stroke:none" transform="translate(275.644 77.322)" fill="#060606" data-original="#060606"></path><path d="M0 0c-30.057-51.2-78.275-87.644-135.773-102.62-57.499-14.977-117.393-6.691-168.65 23.332-51.255 30.021-87.737 78.183-102.725 135.613-14.989 57.429-6.691 117.252 23.365 168.449 30.057 51.2 78.275 87.644 135.773 102.621 34.343 8.944 70.855 9.577 105.466 1.702l-8.094-30.716a191.51 191.51 0 0 1-41.254 4.488c-58.443 0-112.835-26.276-149.228-72.09-5.928-7.461 5.554-17.124 11.745-9.33 33.531 42.211 83.642 66.42 137.483 66.42a176.55 176.55 0 0 0 37.43-4.004l-11.835-44.91c-5.732 1.648-11.822 1.741-17.745.197-8.701-2.266-15.998-7.781-20.547-15.53-4.551-7.752-5.807-16.81-3.537-25.505 3.181-12.189 12.899-21.34 24.69-24.204l-15.708-59.615c-.459-6.553 2.588-9.609 9.143-9.169l90.014 23.446c5.785-11.109 17.381-18.113 29.865-18.112 2.802.001 5.652.354 8.486 1.092 8.701 2.266 15.998 7.781 20.547 15.531 3.256 5.545 4.815 11.759 4.613 18.031l16.152 4.207a176.537 176.537 0 0 0 3.914-36.937c0-96.761-78.721-175.481-175.482-175.481-96.76 0-175.481 78.72-175.481 175.481 0 27.744 6.285 54.28 18.679 78.871 4.364 8.659-9.031 15.411-13.394 6.751-13.46-26.703-20.285-55.511-20.285-85.622 0-105.032 85.45-190.481 190.481-190.481C-86.86-78.094-1.41 7.355-1.41 112.387a191.5 191.5 0 0 1-4.383 40.721l30.932 8.057C37.613 105.987 28.786 49.035 0 0m-179.613 188.42c-6.671 1.5-12.208 6.622-13.999 13.485a18.485 18.485 0 0 0 1.959 14.122 18.542 18.542 0 0 0 11.391 8.61c3.389.881 6.87.781 10.136-.216zm127.909-47.27a18.592 18.592 0 0 0-2.321-6.47 18.536 18.536 0 0 0-11.392-8.609c-7.37-1.921-14.875.865-19.334 6.472zm80.436 36.451-45.389-11.822-.004-.001-.004-.001-164.707-42.9 55.276 209.772a7.5 7.5 0 0 1-5.339 9.163c-39.235 10.353-80.854 10.387-120.356.098-61.374-15.985-112.843-54.888-144.928-109.542-32.086-54.656-40.945-118.521-24.943-179.831C-405.661-8.771-366.717-60.184-312.004-92.23c36.912-21.621 78.012-32.681 119.7-32.679 20.101.001 40.346 2.573 60.311 7.773C-70.619-101.15-19.149-62.248 12.936-7.594 45.022 47.062 53.88 110.927 37.879 172.237a7.5 7.5 0 0 1-9.147 5.364" style="fill-opacity:1;fill-rule:nonzero;stroke:none" transform="translate(429.398 124.866)" fill="#060606" data-original="#060606"></path><path d="M0 0a18.54 18.54 0 0 0 11.391 8.609c1.574.41 3.153.605 4.709.605 8.289 0 15.877-5.563 18.062-13.937a18.49 18.49 0 0 0-1.959-14.122 18.54 18.54 0 0 0-11.392-8.609C10.854-30.05.637-24.069-1.959-14.123A18.488 18.488 0 0 0 0 0m16.106-43.062c2.802.001 5.651.354 8.486 1.092 8.7 2.266 15.997 7.782 20.547 15.531 4.55 7.752 5.806 16.809 3.537 25.504-4.683 17.944-23.104 28.736-41.066 24.06-8.7-2.267-15.997-7.782-20.546-15.531-4.55-7.752-5.807-16.809-3.537-25.505 3.944-15.112 17.629-25.152 32.579-25.151" style="fill-opacity:1;fill-rule:nonzero;stroke:none" transform="translate(111.52 311.227)" fill="#060606" data-original="#060606"></path><path d="M0 0a18.536 18.536 0 0 0-11.392-8.609c-9.96-2.594-20.174 3.386-22.771 13.331a18.492 18.492 0 0 0 1.96 14.123 18.54 18.54 0 0 0 11.391 8.609 18.66 18.66 0 0 0 4.709.605c8.289 0 15.876-5.563 18.062-13.936A18.491 18.491 0 0 0 0 0m-24.592 41.969c-8.701-2.266-15.998-7.781-20.547-15.531-4.55-7.751-5.807-16.809-3.537-25.504 3.943-15.112 17.629-25.152 32.579-25.15 2.802 0 5.651.353 8.486 1.091 8.7 2.266 15.997 7.782 20.547 15.531 4.55 7.751 5.806 16.809 3.537 25.505C11.79 35.854-6.633 46.648-24.592 41.969" style="fill-opacity:1;fill-rule:nonzero;stroke:none" transform="translate(160.222 140.282)" fill="#060606" data-original="#060606"></path><path d="M0 0a18.493 18.493 0 0 0-1.959-14.123 18.546 18.546 0 0 0-11.392-8.609c-9.961-2.595-20.174 3.386-22.771 13.332a18.49 18.49 0 0 0 1.959 14.122 18.543 18.543 0 0 0 11.392 8.609c1.574.41 3.153.606 4.709.606C-9.773 13.937-2.186 8.374 0 0m-26.551 27.847c-8.701-2.266-15.998-7.782-20.547-15.531-4.551-7.752-5.807-16.809-3.537-25.504 3.944-15.112 17.629-25.151 32.579-25.151 2.802 0 5.651.353 8.486 1.091 8.7 2.267 15.997 7.782 20.546 15.531 4.551 7.752 5.807 16.809 3.538 25.505C9.83 21.732-8.592 32.522-26.551 27.847" style="fill-opacity:1;fill-rule:nonzero;stroke:none" transform="translate(329.932 135.265)" fill="#060606" data-original="#060606"></path><path d="M0 0c5.21-8.882 17.641-.43 12.938 7.589L-6.016 39.906c-4.905 8.365-17.844.776-12.938-7.589z" style="fill-opacity:1;fill-rule:nonzero;stroke:none" transform="translate(185.11 338.411)" fill="#060606" data-original="#060606"></path><path d="M0 0c3.431-3.161 6.958-3.396 10.583-.705l28.206 24.681c7.297 6.385-2.581 17.676-9.878 11.288L.705 10.583A7.5 7.5 0 0 1 0 0" style="fill-opacity:1;fill-rule:nonzero;stroke:none" transform="translate(176.418 242.733)" fill="#060606" data-original="#060606"></path><path d="M0 0c-2.614 9.338-17.059 5.295-14.445-4.043L-4.35-40.115c2.568-9.176 17.066-5.321 14.446 4.043z" style="fill-opacity:1;fill-rule:nonzero;stroke:none" transform="translate(227.407 130.067)" fill="#060606" data-original="#060606"></path><path d="M0 0c.188 0 .379.007.57.021l37.392 2.813c9.668.728 8.549 15.684-1.125 14.958L-.555 14.979C-9.92 14.274-9.301 0 0 0" style="fill-opacity:1;fill-rule:nonzero;stroke:none" transform="translate(279.472 198.62)" fill="#060606" data-original="#060606"></path><path d="M0 0a7.5 7.5 0 0 1 2.276-10.359l31.577-20.198c7.854-5.024 16.449 7.285 8.083 12.636L10.359 2.276A7.498 7.498 0 0 1 0 0" style="fill-opacity:1;fill-rule:nonzero;stroke:none" transform="translate(204.845 197.222)" fill="#060606" data-original="#060606"></path><path d="M0 0c.188 0 .379.007.57.021l37.392 2.813c9.669.728 8.547 15.678-1.125 14.958L-.555 14.979C-9.92 14.274-9.301 0 0 0" style="fill-opacity:1;fill-rule:nonzero;stroke:none" transform="translate(99.344 210.795)" fill="#060606" data-original="#060606"></path><path d="M0 0c3.755-2.199 7.22-1.497 10.396 2.106l20.706 31.228c5.357 8.083-7.142 16.371-12.502 8.29L-2.106 10.396A7.5 7.5 0 0 1 0 0" style="fill-opacity:1;fill-rule:nonzero;stroke:none" transform="translate(355.905 172.593)" fill="#060606" data-original="#060606"></path><path d="M0 0c4.6 0 8.599 5.334 7.131 9.83l-11.63 35.619c-3.009 9.218-17.269 4.562-14.259-4.657l11.63-35.618A7.504 7.504 0 0 1 0 0" style="fill-opacity:1;fill-rule:nonzero;stroke:none" transform="translate(375.267 369.925)" fill="#060606" data-original="#060606"></path><path d="M0 0c-8.933 24.413 31.525 35.036 35.856 9.54L0 0m-77.164 23.661c35.273-2.629 49.683 46.965 18.13 63.394l12.586 44.012a178.215 178.215 0 0 0 9.138-3.307c26.241-10.348 48.917-26.264 67.397-47.304C46.069 62.26 58.245 40.604 65.602 17.454l-15.198-4.043a33.506 33.506 0 0 1-7.554 15.101C19.625 55.167-25.456 30.333-14.528-3.865l-76.315-20.304zm18.818 42.635c6.319-11.386-1.594-26.356-14.526-27.627l9.548 33.386 4.978-5.759M127.808 26.24a229.492 229.492 0 0 1-6.978 21.794c-3.413 9.077-17.454 3.795-14.039-5.281a215.219 215.219 0 0 0 4.466-13.152l-31.145-8.287c-7.959 25.374-21.255 49.117-38.755 69.041-20.068 22.848-44.684 40.128-73.165 51.359A193.64 193.64 0 0 1-42.32 145.5l8.921 31.194c50.11-16.205 94.379-51.295 122.274-97.184 5.036-8.286 17.856-.494 12.818 7.791-31.16 51.262-81.516 89.897-138.156 105.998a7.5 7.5 0 0 1-9.262-5.152l-63.174-220.901c-1.579-5.52 4.162-10.633 9.139-9.31l222.247 59.13a7.5 7.5 0 0 1 5.321 9.174" style="fill-opacity:1;fill-rule:nonzero;stroke:none" transform="translate(383.94 318.415)" fill="#060606" data-original="#060606"></path></g></g></svg>